<svg width="730" height="446" viewBox="0 0 730 446" fill="none" xmlns="http://www.w3.org/2000/svg">
<g filter="url(#filter0_d_17_5378)">
<path fill-rule="evenodd" clip-rule="evenodd" d="M592.765 30.5237H141.506L133.467 30.5278L125.167 30.5237H123.999L40.7926 30.5311C35.2701 30.5316 30.7935 35.0086 30.7935 40.5311V103.386C30.7935 114.729 38.275 124.354 47.7758 130.551C76.1123 149.034 76.0553 180.268 75.9886 216.835V216.837V216.838V216.839V216.84V216.842V216.843V216.844V216.845V216.847V216.848V216.849V216.85V216.852V216.853V216.854V216.856V216.857V216.858V216.859V216.861V216.862V216.863V216.864V216.866V216.867V216.868C75.9853 218.643 75.982 220.431 75.982 222.23C75.982 224.037 75.9853 225.836 75.9886 227.625C76.0553 264.345 76.1147 297.001 47.7323 315.884C38.2884 322.167 30.7935 331.785 30.7935 343.128V405.983C30.7935 411.505 35.2706 415.983 40.7935 415.983H124.258L141.436 416L592.821 415.983H610.016H689.443C694.966 415.983 699.443 411.505 699.443 405.983V343.128C699.443 331.785 691.94 322.18 682.502 315.888C655.291 297.747 655.441 267.131 655.614 231.857C655.628 229.019 655.642 226.151 655.642 223.257C655.642 220.363 655.628 217.496 655.614 214.658C655.441 179.384 655.291 148.768 682.502 130.627C691.94 124.335 699.443 114.729 699.443 103.386V40.5311C699.443 35.0086 694.967 30.5316 689.444 30.5311L610.268 30.5237H592.765ZM610.268 30.5237C611.663 32.2251 611.324 34.4101 611.324 36.7825C611.324 42.2289 606.909 46.6441 601.462 46.6441C596.016 46.6441 591.601 42.2289 591.601 36.7825C591.601 34.4101 591.369 32.2251 592.765 30.5237H610.268ZM610.016 415.983C611.411 414.281 611.324 412.105 611.324 409.732C611.324 404.286 606.909 399.87 601.462 399.87C596.016 399.87 591.601 404.286 591.601 409.732C591.601 412.105 591.426 414.281 592.821 415.983H610.016ZM141.436 416C142.832 414.299 142.65 412.105 142.65 409.732C142.65 404.286 138.234 399.87 132.788 399.87C127.342 399.87 122.926 404.286 122.926 409.732C122.926 412.105 122.862 414.281 124.258 415.983L141.436 416ZM123.999 30.5237C122.603 32.2251 122.926 34.4101 122.926 36.7825C122.926 42.2289 127.342 46.6441 132.788 46.6441C138.234 46.6441 142.65 42.2289 142.65 36.7825C142.65 34.4101 142.901 32.2251 141.506 30.5237H123.999ZM611.324 65.4709C611.324 70.9174 606.909 75.3326 601.462 75.3326C596.016 75.3326 591.601 70.9174 591.601 65.4709C591.601 60.0245 596.016 55.6093 601.462 55.6093C606.909 55.6093 611.324 60.0245 611.324 65.4709ZM601.462 104.021C606.909 104.021 611.324 99.6058 611.324 94.1594C611.324 88.7129 606.909 84.2977 601.462 84.2977C596.016 84.2977 591.601 88.7129 591.601 94.1594C591.601 99.6058 596.016 104.021 601.462 104.021ZM611.324 122.848C611.324 128.294 606.909 132.709 601.462 132.709C596.016 132.709 591.601 128.294 591.601 122.848C591.601 117.401 596.016 112.986 601.462 112.986C606.909 112.986 611.324 117.401 611.324 122.848ZM601.462 161.398C606.909 161.398 611.324 156.983 611.324 151.536C611.324 146.09 606.909 141.675 601.462 141.675C596.016 141.675 591.601 146.09 591.601 151.536C591.601 156.983 596.016 161.398 601.462 161.398ZM611.324 180.225C611.324 185.671 606.909 190.086 601.462 190.086C596.016 190.086 591.601 185.671 591.601 180.225C591.601 174.778 596.016 170.363 601.462 170.363C606.909 170.363 611.324 174.778 611.324 180.225ZM601.462 218.775C606.909 218.775 611.324 214.36 611.324 208.913C611.324 203.467 606.909 199.051 601.462 199.051C596.016 199.051 591.601 203.467 591.601 208.913C591.601 214.36 596.016 218.775 601.462 218.775ZM611.324 237.602C611.324 243.048 606.909 247.463 601.462 247.463C596.016 247.463 591.601 243.048 591.601 237.602C591.601 232.155 596.016 227.74 601.462 227.74C606.909 227.74 611.324 232.155 611.324 237.602ZM601.462 276.152C606.909 276.152 611.324 271.736 611.324 266.29C611.324 260.844 606.909 256.428 601.462 256.428C596.016 256.428 591.601 260.844 591.601 266.29C591.601 271.736 596.016 276.152 601.462 276.152ZM611.324 294.978C611.324 300.425 606.909 304.84 601.462 304.84C596.016 304.84 591.601 300.425 591.601 294.978C591.601 289.532 596.016 285.117 601.462 285.117C606.909 285.117 611.324 289.532 611.324 294.978ZM601.462 333.528C606.909 333.528 611.324 329.113 611.324 323.667C611.324 318.22 606.909 313.805 601.462 313.805C596.016 313.805 591.601 318.22 591.601 323.667C591.601 329.113 596.016 333.528 601.462 333.528ZM611.324 352.355C611.324 357.802 606.909 362.217 601.462 362.217C596.016 362.217 591.601 357.802 591.601 352.355C591.601 346.909 596.016 342.494 601.462 342.494C606.909 342.494 611.324 346.909 611.324 352.355ZM601.462 390.905C606.909 390.905 611.324 386.49 611.324 381.044C611.324 375.597 606.909 371.182 601.462 371.182C596.016 371.182 591.601 375.597 591.601 381.044C591.601 386.49 596.016 390.905 601.462 390.905ZM142.65 65.4709C142.65 70.9174 138.234 75.3326 132.788 75.3326C127.342 75.3326 122.926 70.9174 122.926 65.4709C122.926 60.0245 127.342 55.6093 132.788 55.6093C138.234 55.6093 142.65 60.0245 142.65 65.4709ZM132.788 104.021C138.234 104.021 142.65 99.6058 142.65 94.1594C142.65 88.7129 138.234 84.2977 132.788 84.2977C127.342 84.2977 122.926 88.7129 122.926 94.1594C122.926 99.6058 127.342 104.021 132.788 104.021ZM142.65 122.848C142.65 128.294 138.234 132.709 132.788 132.709C127.342 132.709 122.926 128.294 122.926 122.848C122.926 117.401 127.342 112.986 132.788 112.986C138.234 112.986 142.65 117.401 142.65 122.848ZM132.788 161.398C138.234 161.398 142.65 156.983 142.65 151.536C142.65 146.09 138.234 141.675 132.788 141.675C127.342 141.675 122.926 146.09 122.926 151.536C122.926 156.983 127.342 161.398 132.788 161.398ZM142.65 180.225C142.65 185.671 138.234 190.086 132.788 190.086C127.342 190.086 122.926 185.671 122.926 180.225C122.926 174.778 127.342 170.363 132.788 170.363C138.234 170.363 142.65 174.778 142.65 180.225ZM132.788 218.775C138.234 218.775 142.65 214.36 142.65 208.913C142.65 203.467 138.234 199.051 132.788 199.051C127.342 199.051 122.926 203.467 122.926 208.913C122.926 214.36 127.342 218.775 132.788 218.775ZM142.65 237.602C142.65 243.048 138.234 247.463 132.788 247.463C127.342 247.463 122.926 243.048 122.926 237.602C122.926 232.155 127.342 227.74 132.788 227.74C138.234 227.74 142.65 232.155 142.65 237.602ZM132.788 276.152C138.234 276.152 142.65 271.736 142.65 266.29C142.65 260.844 138.234 256.428 132.788 256.428C127.342 256.428 122.926 260.844 122.926 266.29C122.926 271.736 127.342 276.152 132.788 276.152ZM142.65 294.978C142.65 300.425 138.234 304.84 132.788 304.84C127.342 304.84 122.926 300.425 122.926 294.978C122.926 289.532 127.342 285.117 132.788 285.117C138.234 285.117 142.65 289.532 142.65 294.978ZM132.788 333.528C138.234 333.528 142.65 329.113 142.65 323.667C142.65 318.22 138.234 313.805 132.788 313.805C127.342 313.805 122.926 318.22 122.926 323.667C122.926 329.113 127.342 333.528 132.788 333.528ZM142.65 352.355C142.65 357.802 138.234 362.217 132.788 362.217C127.342 362.217 122.926 357.802 122.926 352.355C122.926 346.909 127.342 342.494 132.788 342.494C138.234 342.494 142.65 346.909 142.65 352.355ZM132.788 390.905C138.234 390.905 142.65 386.49 142.65 381.044C142.65 375.597 138.234 371.182 132.788 371.182C127.342 371.182 122.926 375.597 122.926 381.044C122.926 386.49 127.342 390.905 132.788 390.905Z" fill="#0B0629"/>
</g>
<path d="M361.777 263.499V287.987L364.738 286.062L367.698 287.987V263.499L364.738 265.424L361.777 263.499Z" fill="#E535AB"/>
<path d="M332.67 317.168L332.462 317.034L332.67 317.182V347L361.778 365.981V336.163L332.67 317.123V317.168Z" fill="#E535AB"/>
<path d="M364.741 293.139L335.722 312.059L364.741 331.04L394.055 312.209L364.741 293.139Z" fill="#E535AB"/>
<path d="M367.7 365.981L396.869 347V317.478L367.7 336.193V365.981Z" fill="#E535AB"/>
<path d="M266.135 177.836L237.029 158.797V188.644L266.135 207.655V177.836Z" fill="#E535AB"/>
<path d="M298.262 153.761L269.096 134.811L240.049 153.731L269.096 172.712L298.262 153.761Z" fill="#E535AB"/>
<path d="M272.058 207.653L301.224 188.642V158.884L272.058 177.834V207.653Z" fill="#E535AB"/>
<path d="M428.966 290.206L458.076 309.211V279.407L428.966 260.439V290.206Z" fill="#E535AB"/>
<path d="M464 309.213L493.165 290.208V260.57L464 279.422V309.213Z" fill="#E535AB"/>
<path d="M461.037 236.376L431.945 255.313L461.04 274.269L490.282 255.38L461.037 236.376Z" fill="#E535AB"/>
<path d="M364.741 183.578L335.522 202.599L364.749 221.469L394.231 202.741L364.741 183.578Z" fill="#E535AB"/>
<path d="M367.7 256.42L396.869 237.415V208.091L367.7 226.656V256.42Z" fill="#E535AB"/>
<path d="M361.777 226.619L332.669 207.81V237.412L361.777 256.413V226.619Z" fill="#E535AB"/>
<path d="M367.71 155.326L396.871 136.352V107.536L367.71 125.632V155.326Z" fill="#E535AB"/>
<path d="M394.636 101.94L364.741 82.4878L335.691 101.424L364.748 120.401L394.636 101.94Z" fill="#E535AB"/>
<path d="M361.787 125.534L332.673 106.525V136.349L361.787 155.33V125.534Z" fill="#E535AB"/>
<path d="M269.098 236.376L239.942 255.357L269.112 274.269L298.281 255.337L269.098 236.376Z" fill="#E535AB"/>
<path d="M237.028 290.206L266.145 309.218V279.415L237.028 260.528V290.206Z" fill="#E535AB"/>
<path d="M272.068 309.208L301.222 290.209V260.488L272.068 279.414V309.208Z" fill="#E535AB"/>
<path d="M266.134 213.576V231.223L269.096 229.3L272.057 231.223V213.576L269.096 215.501L266.134 213.576Z" fill="#E535AB"/>
<path d="M458.181 231.22L461.142 229.298L464.104 231.22V213.573L461.142 215.498L458.181 213.573V231.22Z" fill="#E535AB"/>
<path d="M423.105 148.636L402.79 136.586V139.546L399.653 141.59L423.105 155.506L423.105 148.636Z" fill="#E535AB"/>
<path d="M304.543 150.771L307.148 152.459V156.131L330.067 141.711L326.752 139.549V136.825C326.452 137.011 303.055 151.705 304.543 150.771Z" fill="#E535AB"/>
<path d="M428.384 297.393C428.361 297.409 428.365 297.405 428.384 297.393V297.393Z" fill="#E535AB"/>
<path d="M428.789 297.14L423.312 293.587L399.445 308.659L399.564 308.718L402.793 310.821V313.635C422.533 301.111 427.555 297.925 428.569 297.281C428.53 297.305 428.494 297.33 428.461 297.348C428.526 297.305 428.63 297.241 428.789 297.14C428.787 297.142 428.781 297.145 428.777 297.148C428.779 297.143 428.787 297.14 428.789 297.14Z" fill="#E535AB"/>
<path d="M428.789 297.139C428.797 297.134 428.799 297.134 428.789 297.139V297.139Z" fill="#E535AB"/>
<path d="M428.458 297.347C428.423 297.369 428.401 297.383 428.387 297.392C428.401 297.381 428.426 297.367 428.458 297.347Z" fill="#E535AB"/>
<path d="M307.144 293.403L303.294 295.921L325.266 311.793L326.746 312.888V310.846L330.329 308.506L330.566 308.328L307.144 291.361L307.144 293.403Z" fill="#E535AB"/>
<path d="M305.387 124.516L308.43 129.596L303.349 132.639L300.307 127.558L305.387 124.516Z" fill="#E535AB"/>
<path d="M295.22 130.601L298.263 135.682L293.182 138.724L290.14 133.643L295.22 130.601Z" fill="#E535AB"/>
<path d="M315.55 118.433L318.592 123.514L313.509 126.556L310.467 121.475L315.55 118.433Z" fill="#E535AB"/>
<path d="M422.468 124.514L427.548 127.557L424.506 132.637L419.425 129.595L422.468 124.514Z" fill="#E535AB"/>
<path d="M432.634 130.599L437.715 133.641L434.672 138.722L429.592 135.679L432.634 130.599Z" fill="#E535AB"/>
<path d="M412.295 118.429L417.378 121.471L414.336 126.552L409.253 123.51L412.295 118.429Z" fill="#E535AB"/>
<path d="M425.618 193.501L423.102 191.844V188.141C422.568 188.409 399.938 199.724 400.243 199.572L402.79 201.23V204.932L425.618 193.501Z" fill="#E535AB"/>
<path d="M307.144 191.838L304.509 193.554L326.746 204.896V201.255L329.323 199.566C329.026 199.415 305.654 187.494 307.144 188.255L307.144 191.838Z" fill="#E535AB"/>
<path d="M458.124 177.836L429.017 158.797V188.644L458.124 207.655V177.836Z" fill="#E535AB"/>
<path d="M461.083 172.712L490.252 153.761L461.083 134.811L432.036 153.731L461.083 172.712Z" fill="#E535AB"/>
<path d="M464.042 177.836V207.655L493.208 188.643V158.886L464.042 177.836Z" fill="#E535AB"/>
<defs>
<filter id="filter0_d_17_5378" x="0.793457" y="0.523682" width="728.65" height="445.476" filterUnits="userSpaceOnUse" color-interpolation-filters="sRGB">
<feFlood flood-opacity="0" result="BackgroundImageFix"/>
<feColorMatrix in="SourceAlpha" type="matrix" values="0 0 0 0 0 0 0 0 0 0 0 0 0 0 0 0 0 0 127 0" result="hardAlpha"/>
<feOffset/>
<feGaussianBlur stdDeviation="15"/>
<feComposite in2="hardAlpha" operator="out"/>
<feColorMatrix type="matrix" values="0 0 0 0 0 0 0 0 0 0 0 0 0 0 0 0 0 0 0.45 0"/>
<feBlend mode="normal" in2="BackgroundImageFix" result="effect1_dropShadow_17_5378"/>
<feBlend mode="normal" in="SourceGraphic" in2="effect1_dropShadow_17_5378" result="shape"/>
</filter>
</defs>
</svg>
